<svg width="18" height="19" viewBox="0 0 18 19" fill="none" xmlns="http://www.w3.org/2000/svg">
<path d="M6 8.75H12" stroke="#56BDC5" stroke-width="1.5" stroke-linecap="round" stroke-linejoin="round"/>
<path d="M2.25 7.85C2.25 6.58988 2.25 5.95982 2.49524 5.47852C2.71095 5.05516 3.05516 4.71095 3.47852 4.49524C3.95982 4.25 4.58988 4.25 5.85 4.25H12.15C13.4102 4.25 14.0401 4.25 14.5215 4.49524C14.9449 4.71095 15.2891 5.05516 15.5048 5.47852C15.75 5.95982 15.75 6.58988 15.75 7.85V12.65C15.75 13.9102 15.75 14.5401 15.5048 15.0215C15.2891 15.4449 14.9449 15.7891 14.5215 16.0048C14.0401 16.25 13.4102 16.25 12.15 16.25H5.85C4.58988 16.25 3.95982 16.25 3.47852 16.0048C3.05516 15.7891 2.71095 15.4449 2.49524 15.0215C2.25 14.5401 2.25 13.9102 2.25 12.65V7.85Z" stroke="#56BDC5" stroke-width="1.5"/>
<path d="M6.75 5.75V2.75" stroke="#56BDC5" stroke-width="1.5" stroke-linecap="round" stroke-linejoin="round"/>
<path d="M11.25 5.75V2.75" stroke="#56BDC5" stroke-width="1.5" stroke-linecap="round" stroke-linejoin="round"/>
</svg>
