<svg width="13" height="13" viewBox="0 0 13 13" fill="none" xmlns="http://www.w3.org/2000/svg">
<path d="M3.5425 2.70833C3.575 3.19042 3.65625 3.66167 3.78625 4.11125L3.13625 4.76125C2.91417 4.11125 2.77333 3.42333 2.72458 2.70833H3.5425ZM8.88333 9.21917C9.34375 9.34917 9.815 9.43042 10.2917 9.46292V10.27C9.57667 10.2212 8.88875 10.0804 8.23333 9.86375L8.88333 9.21917ZM4.0625 1.625H2.16667C1.86875 1.625 1.625 1.86875 1.625 2.16667C1.625 7.25292 5.74708 11.375 10.8333 11.375C11.1313 11.375 11.375 11.1313 11.375 10.8333V8.94292C11.375 8.645 11.1313 8.40125 10.8333 8.40125C10.1617 8.40125 9.50625 8.29292 8.89958 8.0925C8.84542 8.07083 8.78583 8.06542 8.73167 8.06542C8.59083 8.06542 8.45542 8.11958 8.34708 8.2225L7.15542 9.41417C5.6225 8.62875 4.36583 7.3775 3.58583 5.84458L4.7775 4.65292C4.92917 4.50125 4.9725 4.29 4.91292 4.10042C4.7125 3.49375 4.60417 2.84375 4.60417 2.16667C4.60417 1.86875 4.36042 1.625 4.0625 1.625Z" fill="black"/>
</svg>
