<svg width="18" height="11" viewBox="0 0 18 11" fill="none" xmlns="http://www.w3.org/2000/svg">
<path d="M2.51854 0.5H9.64802C10.9008 0.5 11.9166 1.47935 11.9166 2.68743V8.31257C11.9166 9.52065 10.9008 10.5 9.64802 10.5H2.51854C1.26562 10.5 0.25 9.52065 0.25 8.31257V2.68743C0.25 1.47935 1.26562 0.5 2.51854 0.5ZM2.51854 1.75C1.98154 1.75 1.54627 2.1697 1.54627 2.68745V8.3126C1.54627 8.83034 1.98152 9.25005 2.51854 9.25005H9.64802C10.1849 9.25005 10.6203 8.83034 10.6203 8.3126V2.68745C10.6203 2.1697 10.1849 1.75 9.64802 1.75H2.51854ZM13.6688 2.39723L15.8293 1.81302C16.6335 1.59558 17.4683 2.04787 17.6938 2.82344C17.7311 2.9516 17.75 3.08409 17.75 3.21716V7.78304C17.75 8.58845 17.0729 9.24142 16.2377 9.24142C16.0996 9.24142 15.9622 9.22315 15.8293 9.18727L13.6688 8.60296C13.016 8.42649 12.5649 7.85263 12.5649 7.19882V3.80141C12.5649 3.1477 13.016 2.57383 13.6688 2.39727L13.6688 2.39723ZM14.0189 3.6008C13.9256 3.62603 13.8611 3.70805 13.8611 3.80137V7.19878C13.8611 7.2922 13.9256 7.37422 14.0189 7.39936L16.1793 7.98367C16.1983 7.98875 16.218 7.99139 16.2377 7.99139C16.3569 7.99139 16.4537 7.89807 16.4537 7.783V3.21712C16.4537 3.1981 16.451 3.17917 16.4457 3.1609C16.4135 3.05006 16.2942 2.98547 16.1793 3.01654L14.0189 3.6008Z" fill="#56BDC5"/>
</svg>
