<svg width="19" height="19" viewBox="0 0 19 19" fill="none" xmlns="http://www.w3.org/2000/svg">
<path d="M6.98306 9.03125H12.9831" stroke="#F21F61" stroke-width="1.5" stroke-linecap="round" stroke-linejoin="round"/>
<path d="M3.23306 8.13125C3.23306 6.87113 3.23306 6.24107 3.47829 5.75977C3.69401 5.33641 4.03821 4.9922 4.46158 4.77649C4.94288 4.53125 5.57294 4.53125 6.83306 4.53125H13.1331C14.3932 4.53125 15.0232 4.53125 15.5046 4.77649C15.9279 4.9922 16.2721 5.33641 16.4878 5.75977C16.7331 6.24107 16.7331 6.87113 16.7331 8.13125V12.9313C16.7331 14.1914 16.7331 14.8214 16.4878 15.3027C16.2721 15.7261 15.9279 16.0703 15.5046 16.286C15.0232 16.5313 14.3932 16.5312 13.1331 16.5312H6.83306C5.57294 16.5312 4.94288 16.5313 4.46158 16.286C4.03821 16.0703 3.69401 15.7261 3.47829 15.3027C3.23306 14.8214 3.23306 14.1914 3.23306 12.9313V8.13125Z" stroke="#F21F61" stroke-width="1.5"/>
<path d="M7.73306 6.03125V3.03125" stroke="#F21F61" stroke-width="1.5" stroke-linecap="round" stroke-linejoin="round"/>
<path d="M12.2331 6.03125V3.03125" stroke="#F21F61" stroke-width="1.5" stroke-linecap="round" stroke-linejoin="round"/>
</svg>
