<svg width="19" height="19" viewBox="0 0 19 19" fill="none" xmlns="http://www.w3.org/2000/svg">
<path d="M11.1275 4.25L14.75 7.8725V14.75H4.25V4.25H11.1275ZM11.1275 2.75H4.25C3.425 2.75 2.75 3.425 2.75 4.25V14.75C2.75 15.575 3.425 16.25 4.25 16.25H14.75C15.575 16.25 16.25 15.575 16.25 14.75V7.8725C16.25 7.475 16.0925 7.0925 15.8075 6.815L12.185 3.1925C11.9075 2.9075 11.525 2.75 11.1275 2.75ZM5.75 11.75H13.25V13.25H5.75V11.75ZM5.75 8.75H13.25V10.25H5.75V8.75ZM5.75 5.75H11V7.25H5.75V5.75Z" fill="#56BDC5"/>
</svg>
