<svg width="13" height="13" viewBox="0 0 13 13" fill="none" xmlns="http://www.w3.org/2000/svg">
<path d="M6.49998 1.08331C4.40373 1.08331 2.70831 2.77873 2.70831 4.87498C2.70831 7.71873 6.49998 11.9166 6.49998 11.9166C6.49998 11.9166 10.2916 7.71873 10.2916 4.87498C10.2916 2.77873 8.59623 1.08331 6.49998 1.08331ZM3.79165 4.87498C3.79165 3.37998 5.00498 2.16665 6.49998 2.16665C7.99498 2.16665 9.20831 3.37998 9.20831 4.87498C9.20831 6.43498 7.64831 8.76956 6.49998 10.2266C5.37331 8.7804 3.79165 6.41873 3.79165 4.87498Z" fill="#319CA5"/>
<path d="M6.49998 6.22915C7.24787 6.22915 7.85415 5.62287 7.85415 4.87498C7.85415 4.12709 7.24787 3.52081 6.49998 3.52081C5.75209 3.52081 5.14581 4.12709 5.14581 4.87498C5.14581 5.62287 5.75209 6.22915 6.49998 6.22915Z" fill="#319CA5"/>
</svg>
