<svg width="13" height="13" viewBox="0 0 13 13" fill="none" xmlns="http://www.w3.org/2000/svg">
<path d="M6.50001 1.08337C4.40376 1.08337 2.70834 2.77879 2.70834 4.87504C2.70834 7.71879 6.50001 11.9167 6.50001 11.9167C6.50001 11.9167 10.2917 7.71879 10.2917 4.87504C10.2917 2.77879 8.59626 1.08337 6.50001 1.08337ZM3.79168 4.87504C3.79168 3.38004 5.00501 2.16671 6.50001 2.16671C7.99501 2.16671 9.20834 3.38004 9.20834 4.87504C9.20834 6.43504 7.64834 8.76962 6.50001 10.2267C5.37334 8.78046 3.79168 6.41879 3.79168 4.87504Z" fill="black"/>
<path d="M6.50001 6.22921C7.2479 6.22921 7.85418 5.62293 7.85418 4.87504C7.85418 4.12716 7.2479 3.52087 6.50001 3.52087C5.75212 3.52087 5.14584 4.12716 5.14584 4.87504C5.14584 5.62293 5.75212 6.22921 6.50001 6.22921Z" fill="black"/>
</svg>
