<svg width="13" height="13" viewBox="0 0 13 13" fill="none" xmlns="http://www.w3.org/2000/svg">
<path d="M9.96124 7.88663C9.05124 7.42079 7.87041 7.04163 6.49999 7.04163C5.12957 7.04163 3.94874 7.42079 3.03874 7.88663C2.49707 8.16288 2.16666 8.72079 2.16666 9.32746V10.8333H10.8333V9.32746C10.8333 8.72079 10.5029 8.16288 9.96124 7.88663ZM9.74999 9.74996H3.24999V9.32746C3.24999 9.12162 3.35832 8.93746 3.53166 8.85079C4.17624 8.52038 5.21624 8.12496 6.49999 8.12496C7.78374 8.12496 8.82374 8.52038 9.46832 8.85079C9.64166 8.93746 9.74999 9.12162 9.74999 9.32746V9.74996Z" fill="black"/>
<path d="M5.29749 6.49996H7.70249C8.35791 6.49996 8.86166 5.92579 8.77499 5.27579L8.60166 3.94871C8.43374 2.91954 7.53999 2.16663 6.49999 2.16663C5.45999 2.16663 4.56624 2.91954 4.39832 3.94871L4.22499 5.27579C4.13832 5.92579 4.64207 6.49996 5.29749 6.49996ZM5.47082 4.11121C5.55749 3.61288 5.99082 3.24996 6.49999 3.24996C7.00916 3.24996 7.44249 3.61288 7.52916 4.11121L7.70249 5.41663H5.29749L5.47082 4.11121Z" fill="black"/>
</svg>
