<svg width="13" height="13" viewBox="0 0 13 13" fill="none" xmlns="http://www.w3.org/2000/svg">
<path d="M10.2917 4.33333H9.75V1.625H3.25V4.33333H2.70834C1.80917 4.33333 1.08334 5.05917 1.08334 5.95833V9.20833H3.25V11.375H9.75V9.20833H11.9167V5.95833C11.9167 5.05917 11.1908 4.33333 10.2917 4.33333ZM4.33334 2.70833H8.66667V4.33333H4.33334V2.70833ZM8.66667 10.2917H4.33334V8.125H8.66667V10.2917ZM9.75 8.125V7.04167H3.25V8.125H2.16667V5.95833C2.16667 5.66042 2.41042 5.41667 2.70834 5.41667H10.2917C10.5896 5.41667 10.8333 5.66042 10.8333 5.95833V8.125H9.75Z" fill="#F21F61"/>
<path d="M9.75 6.77083C10.0492 6.77083 10.2917 6.52832 10.2917 6.22917C10.2917 5.93001 10.0492 5.6875 9.75 5.6875C9.45085 5.6875 9.20834 5.93001 9.20834 6.22917C9.20834 6.52832 9.45085 6.77083 9.75 6.77083Z" fill="#F21F61"/>
</svg>
