<svg width="18" height="18" viewBox="0 0 18 18" fill="none" xmlns="http://www.w3.org/2000/svg">
<path d="M11.8162 10.6912H11.2237L11.0137 10.4887C11.7487 9.63372 12.1912 8.52372 12.1912 7.31622C12.1912 4.62372 10.0087 2.44122 7.31622 2.44122C4.62372 2.44122 2.44122 4.62372 2.44122 7.31622C2.44122 10.0087 4.62372 12.1912 7.31622 12.1912C8.52372 12.1912 9.63372 11.7487 10.4887 11.0137L10.6912 11.2237V11.8162L14.4412 15.5587L15.5587 14.4412L11.8162 10.6912ZM7.31622 10.6912C5.44872 10.6912 3.94122 9.18372 3.94122 7.31622C3.94122 5.44872 5.44872 3.94122 7.31622 3.94122C9.18372 3.94122 10.6912 5.44872 10.6912 7.31622C10.6912 9.18372 9.18372 10.6912 7.31622 10.6912Z" fill="#F21F61"/>
</svg>
