<svg width="20" height="20" viewBox="0 0 20 20" fill="none" xmlns="http://www.w3.org/2000/svg">
<path d="M16.1935 10.8167C16.2268 10.55 16.2518 10.2833 16.2518 9.99999C16.2518 9.71666 16.2268 9.44999 16.1935 9.18332L17.9518 7.80832C18.1102 7.68332 18.1518 7.45832 18.0518 7.27499L16.3852 4.39166C16.3102 4.25832 16.1685 4.18332 16.0185 4.18332C15.9685 4.18332 15.9185 4.19166 15.8768 4.20832L13.8018 5.04166C13.3685 4.70832 12.9018 4.43332 12.3935 4.22499L12.0768 2.01666C12.0518 1.81666 11.8768 1.66666 11.6685 1.66666H8.33517C8.12683 1.66666 7.95183 1.81666 7.92683 2.01666L7.61017 4.22499C7.10183 4.43332 6.63517 4.71666 6.20183 5.04166L4.12683 4.20832C4.07683 4.19166 4.02683 4.18332 3.97683 4.18332C3.83517 4.18332 3.6935 4.25832 3.6185 4.39166L1.95183 7.27499C1.8435 7.45832 1.8935 7.68332 2.05183 7.80832L3.81017 9.18332C3.77683 9.44999 3.75183 9.72499 3.75183 9.99999C3.75183 10.275 3.77683 10.55 3.81017 10.8167L2.05183 12.1917C1.8935 12.3167 1.85183 12.5417 1.95183 12.725L3.6185 15.6083C3.6935 15.7417 3.83517 15.8167 3.98517 15.8167C4.03517 15.8167 4.08517 15.8083 4.12683 15.7917L6.20183 14.9583C6.63517 15.2917 7.10183 15.5667 7.61017 15.775L7.92683 17.9833C7.95183 18.1833 8.12683 18.3333 8.33517 18.3333H11.6685C11.8768 18.3333 12.0518 18.1833 12.0768 17.9833L12.3935 15.775C12.9018 15.5667 13.3685 15.2833 13.8018 14.9583L15.8768 15.7917C15.9268 15.8083 15.9768 15.8167 16.0268 15.8167C16.1685 15.8167 16.3102 15.7417 16.3852 15.6083L18.0518 12.725C18.1518 12.5417 18.1102 12.3167 17.9518 12.1917L16.1935 10.8167ZM14.5435 9.39166C14.5768 9.64999 14.5852 9.82499 14.5852 9.99999C14.5852 10.175 14.5685 10.3583 14.5435 10.6083L14.4268 11.55L15.1685 12.1333L16.0685 12.8333L15.4852 13.8417L14.4268 13.4167L13.5602 13.0667L12.8102 13.6333C12.4518 13.9 12.1102 14.1 11.7685 14.2417L10.8852 14.6L10.7518 15.5417L10.5852 16.6667H9.4185L9.12683 14.6L8.2435 14.2417C7.88517 14.0917 7.55183 13.9 7.2185 13.65L6.46017 13.0667L5.57683 13.425L4.5185 13.85L3.93517 12.8417L4.83517 12.1417L5.57683 11.5583L5.46017 10.6167C5.43517 10.3583 5.4185 10.1667 5.4185 9.99999C5.4185 9.83332 5.43517 9.64166 5.46017 9.39166L5.57683 8.44999L4.83517 7.86666L3.93517 7.16666L4.5185 6.15832L5.57683 6.58332L6.4435 6.93332L7.1935 6.36666C7.55183 6.09999 7.8935 5.89999 8.23517 5.75832L9.1185 5.39999L9.25183 4.45832L9.4185 3.33332H10.5768L10.8685 5.39999L11.7518 5.75832C12.1102 5.90832 12.4435 6.09999 12.7768 6.34999L13.5352 6.93332L14.4185 6.57499L15.4768 6.14999L16.0602 7.15832L15.1685 7.86666L14.4268 8.44999L14.5435 9.39166ZM10.0018 6.66666C8.16017 6.66666 6.6685 8.15832 6.6685 9.99999C6.6685 11.8417 8.16017 13.3333 10.0018 13.3333C11.8435 13.3333 13.3352 11.8417 13.3352 9.99999C13.3352 8.15832 11.8435 6.66666 10.0018 6.66666ZM10.0018 11.6667C9.08517 11.6667 8.33517 10.9167 8.33517 9.99999C8.33517 9.08332 9.08517 8.33332 10.0018 8.33332C10.9185 8.33332 11.6685 9.08332 11.6685 9.99999C11.6685 10.9167 10.9185 11.6667 10.0018 11.6667Z" fill="#56BDC5"/>
</svg>
