<svg width="15" height="16" viewBox="0 0 15 16" fill="none" xmlns="http://www.w3.org/2000/svg">
<path d="M4.375 7.23685H5.625V8.55264H4.375V7.23685ZM13.125 3.94737V13.1579C13.125 13.8816 12.5625 14.4737 11.875 14.4737H3.125C2.43125 14.4737 1.875 13.8816 1.875 13.1579L1.88125 3.94737C1.88125 3.22369 2.43125 2.63159 3.125 2.63159H3.75V1.3158H5V2.63159H10V1.3158H11.25V2.63159H11.875C12.5625 2.63159 13.125 3.22369 13.125 3.94737ZM3.125 5.26316H11.875V3.94737H3.125V5.26316ZM11.875 13.1579V6.57895H3.125V13.1579H11.875ZM9.375 8.55264H10.625V7.23685H9.375V8.55264ZM6.875 8.55264H8.125V7.23685H6.875V8.55264Z" fill="#12595F"/>
</svg>
