<svg width="15" height="15" viewBox="0 0 15 15" fill="none" xmlns="http://www.w3.org/2000/svg">
<path d="M7.5 4.0625C9.86875 4.0625 11.9812 5.39375 13.0125 7.5C11.9812 9.60625 9.86875 10.9375 7.5 10.9375C5.13125 10.9375 3.01875 9.60625 1.9875 7.5C3.01875 5.39375 5.13125 4.0625 7.5 4.0625ZM7.5 2.8125C4.375 2.8125 1.70625 4.75625 0.625 7.5C1.70625 10.2438 4.375 12.1875 7.5 12.1875C10.625 12.1875 13.2937 10.2438 14.375 7.5C13.2937 4.75625 10.625 2.8125 7.5 2.8125ZM7.5 5.9375C8.3625 5.9375 9.0625 6.6375 9.0625 7.5C9.0625 8.3625 8.3625 9.0625 7.5 9.0625C6.6375 9.0625 5.9375 8.3625 5.9375 7.5C5.9375 6.6375 6.6375 5.9375 7.5 5.9375ZM7.5 4.6875C5.95 4.6875 4.6875 5.95 4.6875 7.5C4.6875 9.05 5.95 10.3125 7.5 10.3125C9.05 10.3125 10.3125 9.05 10.3125 7.5C10.3125 5.95 9.05 4.6875 7.5 4.6875Z" fill="#A1A0A0"/>
</svg>
