<svg width="15" height="15" viewBox="0 0 15 15" fill="none" xmlns="http://www.w3.org/2000/svg">
<path d="M7.5 3.73438C9.86875 3.73438 11.9812 5.06563 13.0125 7.17188C12.6438 7.93438 12.125 8.59062 11.5063 9.12187L12.3875 10.0031C13.2562 9.23438 13.9438 8.27187 14.375 7.17188C13.2937 4.42813 10.625 2.48438 7.5 2.48438C6.70625 2.48438 5.94375 2.60938 5.225 2.84063L6.25625 3.87187C6.6625 3.79062 7.075 3.73438 7.5 3.73438ZM6.83125 4.44687L8.125 5.74063C8.48125 5.89688 8.76875 6.18437 8.925 6.54063L10.2188 7.83438C10.2688 7.62188 10.3062 7.39687 10.3062 7.16563C10.3125 5.61562 9.05 4.35938 7.5 4.35938C7.26875 4.35938 7.05 4.39062 6.83125 4.44687ZM1.25625 2.40312L2.93125 4.07813C1.9125 4.87813 1.10625 5.94063 0.625 7.17188C1.70625 9.91562 4.375 11.8594 7.5 11.8594C8.45 11.8594 9.3625 11.6781 10.2 11.3469L12.3375 13.4844L13.2188 12.6031L2.1375 1.51562L1.25625 2.40312ZM5.94375 7.09062L7.575 8.72187C7.55 8.72812 7.525 8.73438 7.5 8.73438C6.6375 8.73438 5.9375 8.03438 5.9375 7.17188C5.9375 7.14062 5.94375 7.12188 5.94375 7.09062ZM3.81875 4.96562L4.9125 6.05938C4.76875 6.40313 4.6875 6.77813 4.6875 7.17188C4.6875 8.72188 5.95 9.98438 7.5 9.98438C7.89375 9.98438 8.26875 9.90313 8.60625 9.75938L9.21875 10.3719C8.66875 10.5219 8.09375 10.6094 7.5 10.6094C5.13125 10.6094 3.01875 9.27812 1.9875 7.17188C2.425 6.27813 3.0625 5.54062 3.81875 4.96562Z" fill="#A1A0A0"/>
</svg>
